<svg width="86" height="150" viewBox="0 0 86 150" fill="none" xmlns="http://www.w3.org/2000/svg">
<path d="M43 46L78 58.45L72.6634 104.612L43 121L13.3366 104.612L8 58.45L43 46ZM43 54.2875L21.1194 103.225H29.2785L33.678 92.275H52.2468L56.65 103.225H64.8054L43 54.2875ZM49.3903 85.525H36.6097L43 70.1875L49.3903 85.525Z" fill="white"/>
<path d="M20.692 146L19.348 143.008H13.108L11.764 146H10.532L15.652 134.8H16.82L21.94 146H20.692ZM13.54 142.048H18.916L16.228 136.032L13.54 142.048ZM27.8408 137.52C29.8888 137.52 31.2968 138.704 31.2968 141.12V146H30.1608V141.232C30.1608 139.456 29.2328 138.544 27.6328 138.544C25.8248 138.544 24.6888 139.664 24.6888 141.584V146H23.5528V137.584H24.6408V139.136C25.2488 138.112 26.3848 137.52 27.8408 137.52ZM41.1161 137.584H42.2041V144.976C42.2041 147.872 40.7801 149.184 37.9961 149.184C36.4601 149.184 34.9561 148.72 34.0761 147.888L34.6521 147.024C35.4521 147.744 36.6681 148.176 37.9641 148.176C40.0921 148.176 41.0681 147.2 41.0681 145.12V144.048C40.3641 145.12 39.1641 145.68 37.7881 145.68C35.3881 145.68 33.5641 144 33.5641 141.584C33.5641 139.168 35.3881 137.52 37.7881 137.52C39.1961 137.52 40.4121 138.096 41.1161 139.2V137.584ZM37.9001 144.672C39.7561 144.672 41.1001 143.408 41.1001 141.584C41.1001 139.76 39.7561 138.512 37.9001 138.512C36.0441 138.512 34.7161 139.76 34.7161 141.584C34.7161 143.408 36.0441 144.672 37.9001 144.672ZM51.8289 137.584H52.9649V146H51.8769V144.464C51.2849 145.488 50.1969 146.08 48.8529 146.08C46.7089 146.08 45.3009 144.88 45.3009 142.464V137.584H46.4369V142.352C46.4369 144.144 47.3649 145.056 48.9649 145.056C50.7249 145.056 51.8289 143.92 51.8289 142V137.584ZM56.1465 146V134.128H57.2825V146H56.1465ZM63.3874 137.52C65.5634 137.52 66.7954 138.608 66.7954 140.784V146H65.7074V144.688C65.1954 145.552 64.2034 146.08 62.8114 146.08C60.9074 146.08 59.7394 145.088 59.7394 143.632C59.7394 142.336 60.5714 141.248 62.9874 141.248H65.6594V140.736C65.6594 139.296 64.8434 138.512 63.2754 138.512C62.1874 138.512 61.1634 138.896 60.4754 139.504L59.9634 138.656C60.8114 137.936 62.0594 137.52 63.3874 137.52ZM62.9874 145.184C64.2674 145.184 65.2114 144.576 65.6594 143.472V142.096H63.0194C61.3874 142.096 60.8594 142.736 60.8594 143.6C60.8594 144.576 61.6434 145.184 62.9874 145.184ZM70.9689 139.232C71.4969 138.112 72.5689 137.52 74.1209 137.52V138.624C74.0249 138.624 73.9289 138.608 73.8489 138.608C72.0889 138.608 71.0169 139.728 71.0169 141.712V146H69.8809V137.584H70.9689V139.232Z" fill="white"/>
</svg>
