<svg width="87" height="150" viewBox="0 0 87 150" fill="none" xmlns="http://www.w3.org/2000/svg">
<path d="M8.50621 46.0132C8.50621 46.304 8.49223 46.5022 8.50621 46.7004C9.03742 52.1982 9.56863 57.6959 10.0859 63.2069C10.8128 71.0041 11.5257 78.8014 12.2526 86.5855C13.0774 95.3343 13.9162 104.07 14.713 112.819C14.7689 113.453 15.0065 113.731 15.6356 113.889C24.5823 116.215 33.501 118.554 42.4477 120.867C43.0488 121.026 43.7757 121.052 44.3768 120.893C53.3514 118.567 62.3121 116.202 71.2867 113.863C71.9717 113.678 72.2094 113.387 72.2653 112.726C72.5449 109.422 72.8804 106.105 73.1879 102.801C73.7051 97.3298 74.2084 91.8585 74.7256 86.3872C75.3267 79.9644 75.9418 73.5548 76.5429 67.1319C76.9902 62.3478 77.4655 57.577 77.9129 52.7929C78.1226 50.5462 78.3043 48.2995 78.5 46H8.50621V46.0132ZM64.9961 65.0967C64.5348 69.9337 64.0735 74.7838 63.6122 79.6208C63.081 85.1846 62.5497 90.7484 62.0185 96.299C61.8648 97.8981 61.6411 99.4972 61.5992 101.11C61.5712 101.969 61.1798 102.193 60.4249 102.391C55.0289 103.766 49.647 105.18 44.265 106.581C44.0273 106.647 43.8037 106.726 43.566 106.792C43.4821 106.753 43.3983 106.726 43.3004 106.687C37.541 105.206 31.7816 103.713 26.0221 102.206C25.7845 102.14 25.4769 101.784 25.449 101.532C25.0436 97.4091 24.6801 93.2858 24.2887 89.0832H33.0816C33.2354 90.7352 33.4031 92.4136 33.5429 94.1052C33.6687 95.6647 33.6548 95.6647 35.2065 96.0611C37.9883 96.7616 40.7842 97.4488 43.566 98.136L43.5381 98.0699C46.5855 97.3034 49.633 96.5501 52.6804 95.7307C52.96 95.6514 53.2815 95.2285 53.3235 94.9378C53.5052 93.6691 53.6031 92.3872 53.7149 91.1185C53.8966 89.07 54.0784 87.0216 54.2741 84.8806H43.5381L43.566 84.8278C43.4961 84.8278 43.4122 84.8278 43.3423 84.8278H23.8833C23.6177 82.0921 23.3661 79.3829 23.1005 76.5944H43.3563C43.4262 76.5944 43.5101 76.5944 43.58 76.5944L43.552 76.5415H55.0569C55.3225 73.7001 55.5881 70.9248 55.8537 68.0967H43.5381L43.566 68.0438C43.4961 68.0438 43.4122 68.0438 43.3423 68.0438C36.4506 68.057 29.5589 68.057 22.6671 68.0702C22.5693 68.0702 22.4714 68.0306 22.2897 67.9777C22.0381 65.2817 21.7725 62.5857 21.5208 59.8104H43.3423C43.4122 59.8104 43.4961 59.8104 43.566 59.8104L43.5381 59.7576H65.4574C65.3036 61.6078 65.1499 63.3522 64.9961 65.0967Z" fill="white"/>
<path d="M34.188 146.096C30.828 146.096 28.332 143.68 28.332 140.4C28.332 137.12 30.828 134.704 34.204 134.704C35.836 134.704 37.308 135.248 38.3 136.336L37.548 137.088C36.636 136.16 35.516 135.76 34.236 135.76C31.532 135.76 29.5 137.744 29.5 140.4C29.5 143.056 31.532 145.04 34.236 145.04C35.516 145.04 36.636 144.64 37.548 143.696L38.3 144.448C37.308 145.536 35.836 146.096 34.188 146.096ZM43.8495 146.096C42.1695 146.096 40.5215 145.504 39.6895 144.64L40.1535 143.728C40.9535 144.512 42.3775 145.088 43.8495 145.088C45.9455 145.088 46.8575 144.208 46.8575 143.104C46.8575 140.032 39.9615 141.92 39.9615 137.776C39.9615 136.128 41.2415 134.704 44.0895 134.704C45.3535 134.704 46.6655 135.072 47.5615 135.696L47.1615 136.64C46.2015 136.016 45.0815 135.712 44.0895 135.712C42.0415 135.712 41.1295 136.624 41.1295 137.744C41.1295 140.816 48.0255 138.96 48.0255 143.04C48.0255 144.688 46.7135 146.096 43.8495 146.096ZM53.6933 146.096C52.0133 146.096 50.3653 145.504 49.5333 144.64L49.9973 143.728C50.7973 144.512 52.2213 145.088 53.6933 145.088C55.7893 145.088 56.7013 144.208 56.7013 143.104C56.7013 140.032 49.8053 141.92 49.8053 137.776C49.8053 136.128 51.0853 134.704 53.9333 134.704C55.1973 134.704 56.5093 135.072 57.4053 135.696L57.0052 136.64C56.0453 136.016 54.9253 135.712 53.9333 135.712C51.8853 135.712 50.9733 136.624 50.9733 137.744C50.9733 140.816 57.8693 138.96 57.8693 143.04C57.8693 144.688 56.5573 146.096 53.6933 146.096Z" fill="white"/>
</svg>
