<svg width="86" height="150" viewBox="0 0 86 150" fill="none" xmlns="http://www.w3.org/2000/svg">
<path d="M17.3477 94.9649L24.8242 47.454C25.082 45.8348 27.2734 45.4513 28.0469 46.9001L36.082 61.8138L17.3477 94.9649ZM70.5 106.512L63.3672 62.7513C63.1523 61.3877 61.4336 60.8338 60.4453 61.8138L15.5 106.512L40.3789 120.361C41.9258 121.213 43.8594 121.213 45.4062 120.361L70.5 106.512ZM50.3047 68.3333L44.5469 57.4675C43.9023 56.2318 42.1406 56.2318 41.4961 57.4675L16.1875 102.209L50.3047 68.3333Z" fill="white"/>
<path d="M18.504 135.824H12.008V140.224H17.8V141.248H12.008V146H10.824V134.8H18.504V135.824ZM21.1288 135.744C20.6648 135.744 20.2968 135.376 20.2968 134.928C20.2968 134.496 20.6648 134.128 21.1288 134.128C21.5928 134.128 21.9608 134.48 21.9608 134.912C21.9608 135.376 21.6088 135.744 21.1288 135.744ZM20.5528 146V137.584H21.6888V146H20.5528ZM25.9376 139.232C26.4656 138.112 27.5376 137.52 29.0896 137.52V138.624C28.9936 138.624 28.8976 138.608 28.8176 138.608C27.0576 138.608 25.9856 139.728 25.9856 141.712V146H24.8496V137.584H25.9376V139.232ZM38.4124 141.792C38.4124 141.888 38.3964 142.016 38.3964 142.144H31.3564C31.4844 143.904 32.8284 145.072 34.6684 145.072C35.6924 145.072 36.6044 144.704 37.2444 143.968L37.8844 144.704C37.1324 145.6 35.9644 146.08 34.6364 146.08C32.0124 146.08 30.2204 144.288 30.2204 141.792C30.2204 139.296 31.9644 137.52 34.3324 137.52C36.7004 137.52 38.4124 139.264 38.4124 141.792ZM34.3324 138.496C32.7004 138.496 31.5004 139.648 31.3564 141.296H37.3244C37.1804 139.648 35.9804 138.496 34.3324 138.496ZM45.0606 137.52C47.4606 137.52 49.2526 139.248 49.2526 141.792C49.2526 144.336 47.4606 146.08 45.0606 146.08C43.6686 146.08 42.5006 145.472 41.8126 144.336V146H40.7246V134.128H41.8606V139.184C42.5646 138.096 43.7166 137.52 45.0606 137.52ZM44.9806 145.072C46.7566 145.072 48.1166 143.76 48.1166 141.792C48.1166 139.824 46.7566 138.512 44.9806 138.512C43.1886 138.512 41.8446 139.824 41.8446 141.792C41.8446 143.76 43.1886 145.072 44.9806 145.072ZM54.4655 137.52C56.6415 137.52 57.8735 138.608 57.8735 140.784V146H56.7855V144.688C56.2735 145.552 55.2815 146.08 53.8895 146.08C51.9855 146.08 50.8175 145.088 50.8175 143.632C50.8175 142.336 51.6495 141.248 54.0655 141.248H56.7375V140.736C56.7375 139.296 55.9215 138.512 54.3535 138.512C53.2655 138.512 52.2415 138.896 51.5535 139.504L51.0415 138.656C51.8895 137.936 53.1375 137.52 54.4655 137.52ZM54.0655 145.184C55.3455 145.184 56.2895 144.576 56.7375 143.472V142.096H54.0975C52.4655 142.096 51.9375 142.736 51.9375 143.6C51.9375 144.576 52.7215 145.184 54.0655 145.184ZM63.215 146.08C61.823 146.08 60.479 145.632 59.791 145.04L60.303 144.144C60.975 144.672 62.111 145.088 63.295 145.088C64.895 145.088 65.551 144.544 65.551 143.712C65.551 141.52 60.095 143.248 60.095 139.92C60.095 138.544 61.279 137.52 63.423 137.52C64.511 137.52 65.695 137.824 66.399 138.304L65.903 139.216C65.167 138.704 64.287 138.496 63.423 138.496C61.903 138.496 61.231 139.088 61.231 139.888C61.231 142.16 66.687 140.448 66.687 143.68C66.687 145.136 65.407 146.08 63.215 146.08ZM76.1311 141.792C76.1311 141.888 76.1151 142.016 76.1151 142.144H69.0751C69.2031 143.904 70.5471 145.072 72.3871 145.072C73.4111 145.072 74.3231 144.704 74.9631 143.968L75.6031 144.704C74.8511 145.6 73.6831 146.08 72.3551 146.08C69.7311 146.08 67.9391 144.288 67.9391 141.792C67.9391 139.296 69.6831 137.52 72.0511 137.52C74.4191 137.52 76.1311 139.264 76.1311 141.792ZM72.0511 138.496C70.4191 138.496 69.2191 139.648 69.0751 141.296H75.0431C74.8991 139.648 73.6991 138.496 72.0511 138.496Z" fill="white"/>
</svg>
