<svg width="87" height="150" viewBox="0 0 87 150" fill="none" xmlns="http://www.w3.org/2000/svg">
<path d="M77.196 80.1966L46.5883 47.407C44.8371 45.531 41.9438 45.531 40.1927 47.407L33.8732 54.177L41.9438 62.823C43.8473 62.1705 45.9792 62.5783 47.4258 64.2096C48.9486 65.8409 49.3293 68.1248 48.7202 70.1639L56.4863 78.4837C58.3898 77.8312 60.5216 78.239 62.0444 79.8703C64.1763 82.0726 64.1763 85.7431 62.0444 88.0269C59.9125 90.3108 56.5624 90.3108 54.4306 88.0269C52.8316 86.314 52.451 83.8671 53.2885 81.7463L46.0553 73.9976V94.3891C46.5883 94.6338 47.0451 95.0416 47.502 95.4494C49.6338 97.6517 49.6338 101.322 47.502 103.606C45.3701 105.808 42.02 105.808 39.8881 103.606C37.7562 101.322 37.7562 97.7333 39.8881 95.4494C40.4211 94.8785 41.0302 94.4706 41.6393 94.2259V73.5897C41.0302 73.345 40.4211 72.8556 39.8881 72.3662C38.2892 70.6533 37.9085 68.2064 38.746 66.0856L30.7515 57.6028L9.81339 80.0334C8.0622 81.9095 8.0622 85.009 9.81339 86.885L40.3449 119.593C42.0961 121.469 44.9894 121.469 46.7406 119.593L77.1198 87.0481C78.9472 85.0905 78.9472 82.0726 77.196 80.1966Z" fill="white"/>
<path d="M41.212 144.176V140.4H42.348V144.672C41.292 145.616 39.788 146.096 38.236 146.096C34.828 146.096 32.332 143.68 32.332 140.4C32.332 137.12 34.828 134.704 38.252 134.704C39.948 134.704 41.42 135.248 42.412 136.32L41.676 137.072C40.732 136.144 39.612 135.76 38.3 135.76C35.532 135.76 33.5 137.728 33.5 140.4C33.5 143.056 35.532 145.04 38.284 145.04C39.356 145.04 40.348 144.8 41.212 144.176ZM46.035 135.744C45.571 135.744 45.203 135.376 45.203 134.928C45.203 134.496 45.571 134.128 46.035 134.128C46.499 134.128 46.867 134.48 46.867 134.912C46.867 135.376 46.515 135.744 46.035 135.744ZM45.459 146V137.584H46.595V146H45.459ZM53.7879 144.672L54.1879 145.488C53.7399 145.888 53.0679 146.08 52.4119 146.08C50.8279 146.08 49.9479 145.184 49.9479 143.632V138.544H48.4439V137.584H49.9479V135.744H51.0839V137.584H53.6439V138.544H51.0839V143.568C51.0839 144.56 51.5959 145.104 52.5399 145.104C53.0039 145.104 53.4679 144.96 53.7879 144.672Z" fill="white"/>
</svg>
