<svg width="86" height="150" viewBox="0 0 86 150" fill="none" xmlns="http://www.w3.org/2000/svg">
<path d="M8 46C31.3491 46 54.6509 46 78 46C78 71.0169 78 96.0338 78 121C54.6982 121 31.3491 121 8 121C8 95.9325 8 70.9662 8 46ZM70.6266 85.7029C69.2086 82.9683 67.2708 81.0945 64.4821 80.4362C62.497 79.9298 60.5118 79.9298 58.5267 80.3856C52.0986 81.8035 49.3572 90.1087 53.5165 95.6286C54.9818 97.553 56.9196 98.7178 58.9521 99.7306C60.7481 100.642 62.5915 101.503 64.3876 102.465C65.6165 103.124 66.1364 104.339 65.9946 105.808C65.8528 107.276 64.9075 108.086 63.7259 108.542C61.079 109.555 58.0068 108.643 56.2107 106.263C55.8325 105.757 55.4544 105.2 55.0763 104.643C53.2802 105.757 51.5314 106.82 49.7826 107.935C50.8697 110.213 52.3822 112.036 54.4618 113.252C58.0068 115.328 61.7407 115.632 65.5692 114.619C68.0743 113.961 70.2012 112.594 71.5246 110.112C73.9824 105.402 72.5645 99.528 68.2161 96.6415C66.2782 95.3754 64.104 94.5145 62.0716 93.4004C61.079 92.8433 60.0392 92.3369 59.1884 91.628C57.6759 90.3113 57.9595 87.6779 59.661 86.6651C61.3153 85.6523 63.6313 86.26 64.9075 88.0324C65.1911 88.3869 65.3801 88.792 65.6637 89.1972C67.2708 88.0324 68.9251 86.8677 70.6266 85.7029ZM26.4335 108.694C27.3788 110.872 28.7495 112.594 30.6874 113.708C33.1924 115.176 35.9338 115.429 38.7225 114.974C41.2276 114.569 43.3072 113.353 44.6779 110.922C45.8123 108.897 46.1431 106.668 46.1431 104.288C46.1431 96.5908 46.1431 88.8933 46.1431 81.1958C46.1431 80.9932 46.1431 80.74 46.1431 80.4868C43.9217 80.4868 41.7947 80.4868 39.5733 80.4868C39.5733 80.7907 39.5733 81.0439 39.5733 81.3477C39.5733 88.944 39.5733 96.4895 39.5733 104.086C39.5733 104.795 39.526 105.554 39.4315 106.263C39.2424 107.428 38.6752 108.289 37.5881 108.643C35.5557 109.302 33.9014 108.643 32.7198 106.77C32.4362 106.263 32.1526 105.757 31.8217 105.251C29.9784 106.415 28.2296 107.529 26.4335 108.694Z" fill="white"/>
<path d="M5.024 146.096C3.76 146.096 2.608 145.52 1.92 144.496L2.624 143.696C3.232 144.592 4.048 145.072 5.04 145.072C6.416 145.072 7.12 144.256 7.12 142.608V135.824H3.024V134.8H8.288V142.56C8.288 144.928 7.168 146.096 5.024 146.096ZM14.5436 137.52C16.7196 137.52 17.9516 138.608 17.9516 140.784V146H16.8636V144.688C16.3516 145.552 15.3596 146.08 13.9676 146.08C12.0636 146.08 10.8956 145.088 10.8956 143.632C10.8956 142.336 11.7276 141.248 14.1436 141.248H16.8156V140.736C16.8156 139.296 15.9996 138.512 14.4316 138.512C13.3436 138.512 12.3196 138.896 11.6316 139.504L11.1196 138.656C11.9676 137.936 13.2156 137.52 14.5436 137.52ZM14.1436 145.184C15.4236 145.184 16.3676 144.576 16.8156 143.472V142.096H14.1756C12.5436 142.096 12.0156 142.736 12.0156 143.6C12.0156 144.576 12.7996 145.184 14.1436 145.184ZM26.8329 137.584H27.9529L24.2089 146H23.0409L19.3129 137.584H20.4969L23.6489 144.752L26.8329 137.584ZM32.2468 137.52C34.4228 137.52 35.6548 138.608 35.6548 140.784V146H34.5668V144.688C34.0548 145.552 33.0628 146.08 31.6708 146.08C29.7668 146.08 28.5988 145.088 28.5988 143.632C28.5988 142.336 29.4308 141.248 31.8468 141.248H34.5188V140.736C34.5188 139.296 33.7028 138.512 32.1348 138.512C31.0468 138.512 30.0228 138.896 29.3348 139.504L28.8228 138.656C29.6708 137.936 30.9188 137.52 32.2468 137.52ZM31.8468 145.184C33.1268 145.184 34.0708 144.576 34.5188 143.472V142.096H31.8788C30.2468 142.096 29.7188 142.736 29.7188 143.6C29.7188 144.576 30.5028 145.184 31.8468 145.184ZM42.0683 146.096C40.3883 146.096 38.7403 145.504 37.9083 144.64L38.3723 143.728C39.1723 144.512 40.5963 145.088 42.0683 145.088C44.1643 145.088 45.0763 144.208 45.0763 143.104C45.0763 140.032 38.1803 141.92 38.1803 137.776C38.1803 136.128 39.4603 134.704 42.3083 134.704C43.5723 134.704 44.8843 135.072 45.7803 135.696L45.3802 136.64C44.4203 136.016 43.3003 135.712 42.3083 135.712C40.2603 135.712 39.3483 136.624 39.3483 137.744C39.3483 140.816 46.2443 138.96 46.2443 143.04C46.2443 144.688 44.9323 146.096 42.0683 146.096ZM52.072 146.08C49.56 146.08 47.736 144.304 47.736 141.792C47.736 139.28 49.56 137.52 52.072 137.52C53.496 137.52 54.696 138.08 55.368 139.184L54.52 139.76C53.944 138.912 53.048 138.512 52.072 138.512C50.232 138.512 48.888 139.824 48.888 141.792C48.888 143.776 50.232 145.072 52.072 145.072C53.048 145.072 53.944 144.688 54.52 143.84L55.368 144.416C54.696 145.504 53.496 146.08 52.072 146.08ZM58.6876 139.232C59.2156 138.112 60.2876 137.52 61.8396 137.52V138.624C61.7436 138.624 61.6476 138.608 61.5676 138.608C59.8076 138.608 58.7356 139.728 58.7356 141.712V146H57.5996V137.584H58.6876V139.232ZM64.4725 135.744C64.0085 135.744 63.6405 135.376 63.6405 134.928C63.6405 134.496 64.0085 134.128 64.4725 134.128C64.9365 134.128 65.3045 134.48 65.3045 134.912C65.3045 135.376 64.9525 135.744 64.4725 135.744ZM63.8965 146V137.584H65.0325V146H63.8965ZM72.5294 137.52C74.9294 137.52 76.7214 139.248 76.7214 141.792C76.7214 144.352 74.9294 146.08 72.5294 146.08C71.1854 146.08 70.0334 145.504 69.3294 144.416V149.104H68.1934V137.584H69.2814V139.248C69.9694 138.128 71.1374 137.52 72.5294 137.52ZM72.4494 145.072C74.2254 145.072 75.5854 143.76 75.5854 141.792C75.5854 139.84 74.2254 138.512 72.4494 138.512C70.6574 138.512 69.3134 139.84 69.3134 141.792C69.3134 143.76 70.6574 145.072 72.4494 145.072ZM83.0691 144.672L83.4691 145.488C83.0211 145.888 82.3491 146.08 81.6931 146.08C80.1091 146.08 79.2291 145.184 79.2291 143.632V138.544H77.7251V137.584H79.2291V135.744H80.3651V137.584H82.9251V138.544H80.3651V143.568C80.3651 144.56 80.8771 145.104 81.8211 145.104C82.2851 145.104 82.7491 144.96 83.0691 144.672Z" fill="white"/>
</svg>
