<svg width="87" height="150" viewBox="0 0 87 150" fill="none" xmlns="http://www.w3.org/2000/svg">
<path d="M15.875 39.25V89.875C9.75 83.125 6 74.25 6 64.5C6 54.75 9.75 45.875 15.875 39.25Z" fill="white"/>
<path d="M19.875 44.75L41.5 88.125H19.875V44.75Z" fill="white"/>
<path d="M43.5 83.25L22.25 40.875H64.75L43.5 83.25Z" fill="white"/>
<path d="M43.5 27C53.25 27 62.125 30.75 68.75 36.875H18.25C24.875 30.75 33.75 27 43.5 27Z" fill="white"/>
<path d="M67.125 88.125H45.5L67.125 44.75V88.125Z" fill="white"/>
<path d="M68.75 92.125C62.125 98.25 53.25 102 43.5 102C33.75 102 24.875 98.25 18.25 92.125H68.75Z" fill="white"/>
<path d="M71.125 89.75V39.25C77.25 45.875 81 54.75 81 64.5C81 74.25 77.25 83.125 71.125 89.75Z" fill="white"/>
<path d="M19.875 44.75L41.5 88.125H19.875V44.75Z" fill="white"/>
<path d="M43.5 83.25L22.25 40.875H64.75L43.5 83.25Z" fill="white"/>
<path d="M45.5 88.125L67.125 44.75V88.125H45.5Z" fill="white"/>
<path d="M22.25 40.875H64.75L43.5 83.25L22.25 40.875Z" fill="white"/>
<path d="M23.5269 115.8H24.5029V127H23.3669V118.04L18.9669 125.576H18.4069L14.0069 118.088V127H12.8709V115.8H13.8469L18.7109 124.104L23.5269 115.8ZM30.8561 118.52C33.0321 118.52 34.2641 119.608 34.2641 121.784V127H33.1761V125.688C32.6641 126.552 31.6721 127.08 30.2801 127.08C28.3761 127.08 27.2081 126.088 27.2081 124.632C27.2081 123.336 28.0401 122.248 30.4561 122.248H33.1281V121.736C33.1281 120.296 32.3121 119.512 30.7441 119.512C29.6561 119.512 28.6321 119.896 27.9441 120.504L27.4321 119.656C28.2801 118.936 29.5281 118.52 30.8561 118.52ZM30.4561 126.184C31.7361 126.184 32.6801 125.576 33.1281 124.472V123.096H30.4881C28.8561 123.096 28.3281 123.736 28.3281 124.6C28.3281 125.576 29.1121 126.184 30.4561 126.184ZM41.3816 125.672L41.7816 126.488C41.3336 126.888 40.6616 127.08 40.0056 127.08C38.4216 127.08 37.5416 126.184 37.5416 124.632V119.544H36.0376V118.584H37.5416V116.744H38.6776V118.584H41.2376V119.544H38.6776V124.568C38.6776 125.56 39.1896 126.104 40.1336 126.104C40.5976 126.104 41.0616 125.96 41.3816 125.672ZM50.8968 122.792C50.8968 122.888 50.8808 123.016 50.8808 123.144H43.8408C43.9688 124.904 45.3128 126.072 47.1528 126.072C48.1768 126.072 49.0888 125.704 49.7288 124.968L50.3688 125.704C49.6168 126.6 48.4488 127.08 47.1208 127.08C44.4968 127.08 42.7048 125.288 42.7048 122.792C42.7048 120.296 44.4488 118.52 46.8168 118.52C49.1848 118.52 50.8968 120.264 50.8968 122.792ZM46.8168 119.496C45.1848 119.496 43.9848 120.648 43.8408 122.296H49.8088C49.6648 120.648 48.4648 119.496 46.8168 119.496ZM54.297 120.232C54.825 119.112 55.897 118.52 57.449 118.52V119.624C57.353 119.624 57.257 119.608 57.177 119.608C55.417 119.608 54.345 120.728 54.345 122.712V127H53.209V118.584H54.297V120.232ZM60.0819 116.744C59.6179 116.744 59.2499 116.376 59.2499 115.928C59.2499 115.496 59.6179 115.128 60.0819 115.128C60.5459 115.128 60.9139 115.48 60.9139 115.912C60.9139 116.376 60.5619 116.744 60.0819 116.744ZM59.5059 127V118.584H60.6419V127H59.5059ZM66.7468 118.52C68.9228 118.52 70.1548 119.608 70.1548 121.784V127H69.0668V125.688C68.5548 126.552 67.5628 127.08 66.1708 127.08C64.2668 127.08 63.0988 126.088 63.0988 124.632C63.0988 123.336 63.9308 122.248 66.3468 122.248H69.0188V121.736C69.0188 120.296 68.2028 119.512 66.6348 119.512C65.5468 119.512 64.5228 119.896 63.8348 120.504L63.3228 119.656C64.1708 118.936 65.4188 118.52 66.7468 118.52ZM66.3468 126.184C67.6268 126.184 68.5708 125.576 69.0188 124.472V123.096H66.3788C64.7468 123.096 64.2188 123.736 64.2188 124.6C64.2188 125.576 65.0028 126.184 66.3468 126.184ZM73.2403 127V115.128H74.3763V127H73.2403ZM16.9256 146V134.8H21.4856C25.0696 134.8 27.4856 137.104 27.4856 140.4C27.4856 143.696 25.0696 146 21.4856 146H16.9256ZM18.1096 144.976H21.4216C24.3976 144.976 26.3176 143.088 26.3176 140.4C26.3176 137.712 24.3976 135.824 21.4216 135.824H18.1096V144.976ZM37.2483 141.792C37.2483 141.888 37.2323 142.016 37.2323 142.144H30.1923C30.3203 143.904 31.6643 145.072 33.5043 145.072C34.5283 145.072 35.4403 144.704 36.0803 143.968L36.7203 144.704C35.9683 145.6 34.8003 146.08 33.4723 146.08C30.8483 146.08 29.0563 144.288 29.0563 141.792C29.0563 139.296 30.8003 137.52 33.1683 137.52C35.5363 137.52 37.2483 139.264 37.2483 141.792ZM33.1683 138.496C31.5363 138.496 30.3363 139.648 30.1923 141.296H36.1603C36.0163 139.648 34.8163 138.496 33.1683 138.496ZM41.8166 146.08C40.4246 146.08 39.0806 145.632 38.3926 145.04L38.9046 144.144C39.5766 144.672 40.7126 145.088 41.8966 145.088C43.4966 145.088 44.1526 144.544 44.1526 143.712C44.1526 141.52 38.6966 143.248 38.6966 139.92C38.6966 138.544 39.8806 137.52 42.0246 137.52C43.1126 137.52 44.2966 137.824 45.0006 138.304L44.5046 139.216C43.7686 138.704 42.8886 138.496 42.0246 138.496C40.5046 138.496 39.8326 139.088 39.8326 139.888C39.8326 142.16 45.2886 140.448 45.2886 143.68C45.2886 145.136 44.0086 146.08 41.8166 146.08ZM47.9647 135.744C47.5007 135.744 47.1327 135.376 47.1327 134.928C47.1327 134.496 47.5007 134.128 47.9647 134.128C48.4287 134.128 48.7967 134.48 48.7967 134.912C48.7967 135.376 48.4447 135.744 47.9647 135.744ZM47.3887 146V137.584H48.5247V146H47.3887ZM58.3896 137.584H59.4776V144.976C59.4776 147.872 58.0536 149.184 55.2696 149.184C53.7336 149.184 52.2296 148.72 51.3496 147.888L51.9256 147.024C52.7256 147.744 53.9416 148.176 55.2376 148.176C57.3656 148.176 58.3416 147.2 58.3416 145.12V144.048C57.6376 145.12 56.4376 145.68 55.0616 145.68C52.6616 145.68 50.8376 144 50.8376 141.584C50.8376 139.168 52.6616 137.52 55.0616 137.52C56.4696 137.52 57.6856 138.096 58.3896 139.2V137.584ZM55.1736 144.672C57.0296 144.672 58.3736 143.408 58.3736 141.584C58.3736 139.76 57.0296 138.512 55.1736 138.512C53.3176 138.512 51.9896 139.76 51.9896 141.584C51.9896 143.408 53.3176 144.672 55.1736 144.672ZM66.9423 137.52C68.9903 137.52 70.3983 138.704 70.3983 141.12V146H69.2623V141.232C69.2623 139.456 68.3343 138.544 66.7343 138.544C64.9263 138.544 63.7903 139.664 63.7903 141.584V146H62.6543V137.584H63.7423V139.136C64.3503 138.112 65.4863 137.52 66.9423 137.52Z" fill="white"/>
</svg>
