<svg width="77" height="122" viewBox="0 0 77 122" fill="none" xmlns="http://www.w3.org/2000/svg">
<g clip-path="url(#clip0_105209_1823)">
<path d="M63.9012 31.6751L39.5508 45.3693C39.1126 45.6239 38.5711 45.6239 38.12 45.3693L13.7696 31.6751C12.8157 31.1406 12.8157 29.7788 13.7696 29.2316L38.12 15.5373C38.5583 15.2828 39.0997 15.2828 39.5508 15.5373L63.9012 29.2316C64.8551 29.7661 64.8551 31.1279 63.9012 31.6751Z" fill="white"/>
<path d="M59.686 36.2822V47.571C59.686 48.0801 59.4153 48.5383 58.9641 48.7928L39.5508 59.7126C39.1126 59.9671 38.5712 59.9671 38.12 59.7126L18.7067 48.7928C18.2556 48.5383 17.9849 48.0801 17.9849 47.571V36.2822L28.7485 42.3275L38.12 47.6092C38.5583 47.8638 39.0997 47.8638 39.5508 47.6092L48.9223 42.3275L59.686 36.2822Z" fill="white"/>
<path d="M71.0295 17.6501L71.6998 17.1919C72.5119 16.6319 72.4088 15.4229 71.5193 15.0029L66.1826 12.4957C65.2803 12.0757 64.2619 12.7757 64.3393 13.7556L64.8549 19.5719C64.9451 20.5391 66.0666 21.0609 66.8787 20.5009L67.8326 19.8519C76.3147 33.3424 74.033 51.3129 62.1737 62.2581C50.5077 73.0251 32.5253 74.336 19.4155 65.3762C18.539 64.778 17.3273 64.9944 16.7214 65.8598C16.1155 66.7253 16.3347 67.9216 17.2112 68.5198C23.6952 72.9488 31.2362 75.1251 38.7643 75.1251C48.1874 75.1251 57.5846 71.7142 64.8162 65.0453C78.0549 52.8147 80.6072 32.6934 71.0295 17.6501Z" fill="white"/>
<path d="M60.4593 6.73042C45.8671 -3.24752 25.848 -1.78391 12.8543 10.2049C-0.719533 22.7409 -3.15586 42.7732 6.96327 58.071L6.02225 58.7073C5.21014 59.2673 5.31327 60.4764 6.20272 60.8964L11.5394 63.4036C12.4418 63.8236 13.4601 63.1236 13.3828 62.1436L12.8672 56.3274C12.7769 55.3601 11.6554 54.8383 10.8433 55.3983L10.1472 55.882C1.1496 42.1496 3.32812 24.2173 15.4968 12.9921C27.1628 2.22508 45.1452 0.901474 58.255 9.87398C59.1315 10.4721 60.3433 10.2558 60.9491 9.39036C61.555 8.52493 61.3358 7.32859 60.4593 6.73042Z" fill="white"/>
</g>
<path d="M16.236 102.096C15.3827 102.096 14.5933 101.957 13.868 101.68C13.1533 101.392 12.5293 100.992 11.996 100.48C11.4733 99.968 11.0627 99.3653 10.764 98.672C10.476 97.9787 10.332 97.2213 10.332 96.4C10.332 95.5787 10.476 94.8213 10.764 94.128C11.0627 93.4347 11.4787 92.832 12.012 92.32C12.5453 91.808 13.1693 91.4133 13.884 91.136C14.6093 90.848 15.3987 90.704 16.252 90.704C17.1053 90.704 17.884 90.8373 18.588 91.104C19.3027 91.3707 19.9107 91.776 20.412 92.32L19.676 93.072C19.2067 92.6027 18.6893 92.2667 18.124 92.064C17.5587 91.8613 16.9507 91.76 16.3 91.76C15.6067 91.76 14.9667 91.8773 14.38 92.112C13.804 92.336 13.2973 92.6613 12.86 93.088C12.4333 93.504 12.0973 93.9947 11.852 94.56C11.6173 95.1147 11.5 95.728 11.5 96.4C11.5 97.0613 11.6173 97.6747 11.852 98.24C12.0973 98.8053 12.4333 99.3013 12.86 99.728C13.2973 100.144 13.804 100.469 14.38 100.704C14.9667 100.928 15.6013 101.04 16.284 101.04C16.924 101.04 17.5267 100.944 18.092 100.752C18.668 100.56 19.196 100.235 19.676 99.776L20.348 100.672C19.8147 101.141 19.1907 101.499 18.476 101.744C17.7613 101.979 17.0147 102.096 16.236 102.096ZM19.212 100.528V96.4H20.348V100.672L19.212 100.528ZM23.459 102V93.6H24.547V95.888L24.435 95.488C24.6697 94.848 25.0643 94.3627 25.619 94.032C26.1737 93.6907 26.8617 93.52 27.683 93.52V94.624C27.6403 94.624 27.5977 94.624 27.555 94.624C27.5123 94.6133 27.4697 94.608 27.427 94.608C26.5417 94.608 25.8483 94.88 25.347 95.424C24.8457 95.9573 24.595 96.72 24.595 97.712V102H23.459ZM33.1018 102.08C32.2911 102.08 31.5604 101.899 30.9098 101.536C30.2698 101.163 29.7631 100.656 29.3898 100.016C29.0164 99.3653 28.8298 98.624 28.8298 97.792C28.8298 96.9493 29.0164 96.208 29.3898 95.568C29.7631 94.928 30.2698 94.4267 30.9098 94.064C31.5498 93.7013 32.2804 93.52 33.1018 93.52C33.9338 93.52 34.6698 93.7013 35.3098 94.064C35.9604 94.4267 36.4671 94.928 36.8298 95.568C37.2031 96.208 37.3898 96.9493 37.3898 97.792C37.3898 98.624 37.2031 99.3653 36.8298 100.016C36.4671 100.656 35.9604 101.163 35.3098 101.536C34.6591 101.899 33.9231 102.08 33.1018 102.08ZM33.1018 101.072C33.7098 101.072 34.2484 100.939 34.7178 100.672C35.1871 100.395 35.5551 100.011 35.8218 99.52C36.0991 99.0187 36.2378 98.4427 36.2378 97.792C36.2378 97.1307 36.0991 96.5547 35.8218 96.064C35.5551 95.5733 35.1871 95.1947 34.7178 94.928C34.2484 94.6507 33.7151 94.512 33.1178 94.512C32.5204 94.512 31.9871 94.6507 31.5178 94.928C31.0484 95.1947 30.6751 95.5733 30.3978 96.064C30.1204 96.5547 29.9818 97.1307 29.9818 97.792C29.9818 98.4427 30.1204 99.0187 30.3978 99.52C30.6751 100.011 31.0484 100.395 31.5178 100.672C31.9871 100.939 32.5151 101.072 33.1018 101.072ZM41.1866 102L38.0186 93.6H39.1066L41.9866 101.392H41.4906L44.4506 93.6H45.4266L48.3546 101.392H47.8586L50.7866 93.6H51.8266L48.6426 102H47.5706L44.7546 94.672H45.0906L42.2586 102H41.1866ZM56.4275 102.08C55.6382 102.08 55.0302 101.867 54.6035 101.44C54.1768 101.013 53.9635 100.411 53.9635 99.632V91.744H55.0995V99.568C55.0995 100.059 55.2222 100.437 55.4675 100.704C55.7235 100.971 56.0862 101.104 56.5555 101.104C57.0568 101.104 57.4728 100.96 57.8035 100.672L58.2035 101.488C57.9795 101.691 57.7075 101.84 57.3875 101.936C57.0782 102.032 56.7582 102.08 56.4275 102.08ZM52.4595 94.544V93.6H57.6595V94.544H52.4595ZM64.5595 93.52C65.2422 93.52 65.8395 93.6533 66.3515 93.92C66.8742 94.176 67.2795 94.5707 67.5675 95.104C67.8662 95.6373 68.0155 96.3093 68.0155 97.12V102H66.8795V97.232C66.8795 96.3467 66.6555 95.68 66.2075 95.232C65.7702 94.7733 65.1515 94.544 64.3515 94.544C63.7542 94.544 63.2315 94.6667 62.7835 94.912C62.3462 95.1467 62.0048 95.4933 61.7595 95.952C61.5248 96.4 61.4075 96.944 61.4075 97.584V102H60.2715V90.128H61.4075V95.904L61.1835 95.472C61.4502 94.864 61.8768 94.3893 62.4635 94.048C63.0502 93.696 63.7488 93.52 64.5595 93.52ZM18.1347 112.52C18.8174 112.52 19.4094 112.653 19.9107 112.92C20.4227 113.176 20.8174 113.571 21.0947 114.104C21.3827 114.637 21.5267 115.309 21.5267 116.12V121H20.3907V116.232C20.3907 115.347 20.1774 114.68 19.7507 114.232C19.3347 113.773 18.7427 113.544 17.9747 113.544C17.3987 113.544 16.8974 113.667 16.4707 113.912C16.0547 114.147 15.7294 114.493 15.4947 114.952C15.2707 115.4 15.1587 115.944 15.1587 116.584V121H14.0227V116.232C14.0227 115.347 13.8094 114.68 13.3827 114.232C12.956 113.773 12.3587 113.544 11.5907 113.544C11.0254 113.544 10.5294 113.667 10.1027 113.912C9.67602 114.147 9.34535 114.493 9.11069 114.952C8.88669 115.4 8.77469 115.944 8.77469 116.584V121H7.63869V112.6H8.72669V114.872L8.55069 114.472C8.80669 113.864 9.21735 113.389 9.78269 113.048C10.3587 112.696 11.036 112.52 11.8147 112.52C12.636 112.52 13.3347 112.728 13.9107 113.144C14.4867 113.549 14.86 114.163 15.0307 114.984L14.5827 114.808C14.828 114.125 15.26 113.576 15.8787 113.16C16.508 112.733 17.26 112.52 18.1347 112.52ZM24.6074 121V112.6H25.7434V121H24.6074ZM25.1834 110.744C24.9488 110.744 24.7514 110.664 24.5914 110.504C24.4314 110.344 24.3514 110.152 24.3514 109.928C24.3514 109.704 24.4314 109.517 24.5914 109.368C24.7514 109.208 24.9488 109.128 25.1834 109.128C25.4181 109.128 25.6154 109.203 25.7754 109.352C25.9354 109.501 26.0154 109.688 26.0154 109.912C26.0154 110.147 25.9354 110.344 25.7754 110.504C25.6261 110.664 25.4288 110.744 25.1834 110.744ZM33.1923 112.52C33.875 112.52 34.4723 112.653 34.9843 112.92C35.507 113.176 35.9123 113.571 36.2003 114.104C36.499 114.637 36.6483 115.309 36.6483 116.12V121H35.5123V116.232C35.5123 115.347 35.2883 114.68 34.8403 114.232C34.403 113.773 33.7843 113.544 32.9843 113.544C32.387 113.544 31.8643 113.667 31.4163 113.912C30.979 114.147 30.6376 114.493 30.3923 114.952C30.1576 115.4 30.0403 115.944 30.0403 116.584V121H28.9043V112.6H29.9923V114.904L29.8163 114.472C30.083 113.864 30.5096 113.389 31.0963 113.048C31.683 112.696 32.3816 112.52 33.1923 112.52ZM43.0608 121.08C42.2608 121.08 41.5408 120.899 40.9008 120.536C40.2715 120.173 39.7755 119.672 39.4128 119.032C39.0501 118.381 38.8688 117.635 38.8688 116.792C38.8688 115.939 39.0501 115.192 39.4128 114.552C39.7755 113.912 40.2715 113.416 40.9008 113.064C41.5408 112.701 42.2608 112.52 43.0608 112.52C43.7968 112.52 44.4528 112.685 45.0288 113.016C45.6155 113.347 46.0795 113.832 46.4208 114.472C46.7728 115.101 46.9488 115.875 46.9488 116.792C46.9488 117.699 46.7781 118.472 46.4368 119.112C46.0955 119.752 45.6315 120.243 45.0448 120.584C44.4688 120.915 43.8075 121.08 43.0608 121.08ZM43.1408 120.072C43.7381 120.072 44.2715 119.939 44.7408 119.672C45.2208 119.395 45.5941 119.011 45.8608 118.52C46.1381 118.019 46.2768 117.443 46.2768 116.792C46.2768 116.131 46.1381 115.555 45.8608 115.064C45.5941 114.573 45.2208 114.195 44.7408 113.928C44.2715 113.651 43.7381 113.512 43.1408 113.512C42.5541 113.512 42.0261 113.651 41.5568 113.928C41.0875 114.195 40.7141 114.573 40.4368 115.064C40.1595 115.555 40.0208 116.131 40.0208 116.792C40.0208 117.443 40.1595 118.019 40.4368 118.52C40.7141 119.011 41.0875 119.395 41.5568 119.672C42.0261 119.939 42.5541 120.072 43.1408 120.072ZM46.3088 121V118.472L46.4208 116.776L46.2608 115.08V109.128H47.3968V121H46.3088ZM52.8166 121.08C52.1232 121.08 51.4672 120.984 50.8486 120.792C50.2299 120.589 49.7446 120.339 49.3926 120.04L49.9046 119.144C50.2459 119.4 50.6832 119.624 51.2166 119.816C51.7499 119.997 52.3099 120.088 52.8966 120.088C53.6966 120.088 54.2726 119.965 54.6246 119.72C54.9766 119.464 55.1526 119.128 55.1526 118.712C55.1526 118.403 55.0512 118.163 54.8486 117.992C54.6566 117.811 54.4006 117.677 54.0806 117.592C53.7606 117.496 53.4032 117.416 53.0086 117.352C52.6139 117.288 52.2192 117.213 51.8246 117.128C51.4406 117.043 51.0886 116.92 50.7686 116.76C50.4486 116.589 50.1872 116.36 49.9846 116.072C49.7926 115.784 49.6966 115.4 49.6966 114.92C49.6966 114.461 49.8246 114.051 50.0806 113.688C50.3366 113.325 50.7099 113.043 51.2006 112.84C51.7019 112.627 52.3099 112.52 53.0246 112.52C53.5686 112.52 54.1126 112.595 54.6566 112.744C55.2006 112.883 55.6486 113.069 56.0006 113.304L55.5046 114.216C55.1312 113.96 54.7312 113.779 54.3046 113.672C53.8779 113.555 53.4512 113.496 53.0246 113.496C52.2672 113.496 51.7072 113.629 51.3446 113.896C50.9926 114.152 50.8166 114.483 50.8166 114.888C50.8166 115.208 50.9126 115.459 51.1046 115.64C51.3072 115.821 51.5686 115.965 51.8886 116.072C52.2192 116.168 52.5766 116.248 52.9606 116.312C53.3552 116.376 53.7446 116.456 54.1286 116.552C54.5232 116.637 54.8806 116.76 55.2006 116.92C55.5312 117.069 55.7926 117.288 55.9846 117.576C56.1872 117.853 56.2886 118.221 56.2886 118.68C56.2886 119.171 56.1499 119.597 55.8726 119.96C55.6059 120.312 55.2112 120.589 54.6886 120.792C54.1766 120.984 53.5526 121.08 52.8166 121.08ZM61.9411 121.08C61.0664 121.08 60.2984 120.899 59.6371 120.536C58.9757 120.163 58.4584 119.656 58.0851 119.016C57.7117 118.365 57.5251 117.624 57.5251 116.792C57.5251 115.96 57.7011 115.224 58.0531 114.584C58.4157 113.944 58.9064 113.443 59.5251 113.08C60.1544 112.707 60.8584 112.52 61.6371 112.52C62.4264 112.52 63.1251 112.701 63.7331 113.064C64.3517 113.416 64.8371 113.917 65.1891 114.568C65.5411 115.208 65.7171 115.949 65.7171 116.792C65.7171 116.845 65.7117 116.904 65.7011 116.968C65.7011 117.021 65.7011 117.08 65.7011 117.144H58.3891V116.296H65.0931L64.6451 116.632C64.6451 116.024 64.5117 115.485 64.2451 115.016C63.9891 114.536 63.6371 114.163 63.1891 113.896C62.7411 113.629 62.2237 113.496 61.6371 113.496C61.0611 113.496 60.5437 113.629 60.0851 113.896C59.6264 114.163 59.2691 114.536 59.0131 115.016C58.7571 115.496 58.6291 116.045 58.6291 116.664V116.84C58.6291 117.48 58.7677 118.045 59.0451 118.536C59.3331 119.016 59.7277 119.395 60.2291 119.672C60.7411 119.939 61.3224 120.072 61.9731 120.072C62.4851 120.072 62.9597 119.981 63.3971 119.8C63.8451 119.619 64.2291 119.341 64.5491 118.968L65.1891 119.704C64.8157 120.152 64.3464 120.493 63.7811 120.728C63.2264 120.963 62.6131 121.08 61.9411 121.08ZM70.6853 121.08C69.896 121.08 69.288 120.867 68.8613 120.44C68.4346 120.013 68.2213 119.411 68.2213 118.632V110.744H69.3573V118.568C69.3573 119.059 69.48 119.437 69.7253 119.704C69.9813 119.971 70.344 120.104 70.8133 120.104C71.3146 120.104 71.7306 119.96 72.0613 119.672L72.4613 120.488C72.2373 120.691 71.9653 120.84 71.6453 120.936C71.336 121.032 71.016 121.08 70.6853 121.08ZM66.7173 113.544V112.6H71.9173V113.544H66.7173Z" fill="white"/>
<defs>
<clipPath id="clip0_105209_1823">
<rect width="76.0417" height="75" fill="white" transform="translate(0.75 0.125)"/>
</clipPath>
</defs>
</svg>
