<svg width="87" height="150" viewBox="0 0 87 150" fill="none" xmlns="http://www.w3.org/2000/svg">
<path d="M34.5176 114.615C29.5249 113.193 25.134 110.576 21.3004 106.921C20.0968 107.349 18.8709 107.778 17.6227 108.184C17.0432 108.365 16.4637 108.297 15.8619 108.071C14.792 107.665 14.1456 106.875 13.6776 105.905C13.0312 104.619 12.2065 103.446 11.5601 102.16C10.9806 100.964 10.1337 99.926 9.64331 98.685C9.39813 98.0758 8.75176 97.6697 8.75176 96.9025C8.17225 95.9549 8.72947 95.12 9.0638 94.2852C9.15296 94.0596 9.2644 93.7662 9.465 93.676C10.2674 93.315 10.6686 92.5027 11.3373 92.0063C11.6493 91.7807 11.9836 91.5325 12.3403 91.2617C11.8276 88.667 11.3818 86.0722 11.3818 83.4097C11.3818 80.7699 11.8499 78.2202 12.3403 75.6931C11.471 74.8809 10.6686 74.0912 9.82162 73.3466C8.95236 72.5794 8.43972 71.6318 8.55116 70.639C8.61803 70.0975 8.77405 69.5108 9.04151 69.0596C9.8662 67.7283 10.624 66.3294 11.4264 64.9756C12.0728 63.8926 12.63 62.7644 13.3433 61.704C13.7222 61.1625 13.9451 60.5307 14.324 59.9666C15.0595 58.9061 16.5306 58.3872 17.7341 58.7482C18.804 59.0641 19.807 59.5379 20.8992 59.741C21.0106 59.7635 21.0998 59.9215 21.2112 60.0343C25.0672 56.4016 29.4581 53.8069 34.4953 52.2951C34.6959 51.6859 34.7405 51.0316 34.9857 50.3998C35.164 49.926 35.1194 49.3394 35.2086 48.8204C35.4537 47.4666 36.2784 46.6769 37.4597 46.2708C37.8832 46.1354 38.3067 46 38.8194 46C41.9398 46.0451 45.0602 46.0451 48.1807 46C49.0722 46 49.83 46.361 50.5433 46.7671C51.1896 47.1056 51.5463 47.8276 51.7246 48.5045C52.0366 49.7455 52.2149 51.009 52.4601 52.3177C57.4751 53.7617 61.866 56.3565 65.6997 60.0117C66.9032 59.583 68.1291 59.1543 69.3773 58.7482C69.9568 58.5677 70.5363 58.6354 71.1381 58.861C72.208 59.2671 72.8544 60.0569 73.3224 61.0271C73.9688 62.3132 74.7935 63.4865 75.4399 64.7726C76.0194 65.9684 76.8663 67.0063 77.3567 68.2473C77.6019 68.8565 78.2482 69.2626 78.2482 70.0298C78.8278 70.9774 78.2705 71.8123 77.9362 72.6471C77.847 72.8727 77.7356 73.1661 77.535 73.2563C76.7326 73.6173 76.3314 74.4296 75.6627 74.926C75.3507 75.1516 75.0164 75.3998 74.6597 75.6706C75.1724 78.2653 75.6182 80.8601 75.6182 83.5226C75.6182 86.1625 75.217 88.7121 74.6597 91.2392C75.529 92.0514 76.3314 92.8412 77.1784 93.5857C78.0476 94.3529 78.5603 95.3005 78.4488 96.2933C78.382 96.8348 78.2482 97.4215 77.9585 97.8727C77.1561 99.1814 76.3983 100.535 75.6182 101.866C74.6375 103.514 73.8351 105.296 72.6983 106.853C72.4977 107.71 71.6953 107.778 71.1158 108.094C70.4917 108.432 69.8677 108.342 69.1767 108.139C68.1514 107.846 67.1707 107.327 66.1008 107.191C65.9894 107.169 65.9002 107.011 65.7888 106.898C61.9328 110.576 57.5642 113.193 52.4601 114.66C52.2149 115.878 51.992 117.142 51.7246 118.383C51.4571 119.601 50.6547 120.368 49.518 120.729C49.0945 120.865 48.6487 121 48.1584 121C45.0379 120.955 41.9175 120.955 38.7971 121C37.9055 121 37.1477 120.639 36.4345 120.233C35.7881 119.894 35.4092 119.172 35.2754 118.495C35.0303 117.164 34.7851 115.923 34.5176 114.615ZM35.9664 94.7365C36.4122 94.4883 36.9248 94.3303 36.9471 93.7888C36.9917 92.9765 37.1031 92.1417 36.9248 91.3745C36.6128 90.0659 36.0555 88.8023 35.7212 87.4937C35.4983 86.6588 35.008 85.8691 35.0303 84.9666C34.317 83.1841 33.8712 81.3114 33.2694 79.5063C32.7791 78.0171 32.4225 76.4829 31.8875 75.0162C31.5978 74.204 31.5309 73.3014 30.996 72.5794C30.9514 72.5117 30.9291 72.4666 30.9291 72.4666C30.3273 72.0605 29.7032 72.1958 29.1683 72.1958C28.8563 72.4892 28.5888 72.7374 28.3436 72.963C28.3213 73.685 27.8087 74.2491 27.8978 74.9486C27.1177 76.7085 26.7834 78.6038 26.137 80.4088C25.8027 81.3339 25.6021 82.2816 25.3346 83.2292C25.0895 84.1769 24.5545 85.0343 24.5545 86.0496C23.7075 87.9675 23.2841 90.0208 22.66 92.0289C22.5039 92.5253 22.4148 92.9991 22.7268 93.4729C22.816 93.6083 22.7714 93.8114 22.7714 93.7888C23.128 94.1724 23.3955 94.4431 23.6184 94.7139C24.0419 94.7139 24.4877 94.7139 24.9557 94.7139C25.2678 94.3078 25.5798 93.9242 25.8696 93.5406C25.8027 92.2545 26.0702 91.3971 26.6497 90.0208C28.834 90.0208 31.0183 90.0208 33.2026 90.0208C33.3809 90.7428 33.47 91.4422 33.7152 92.0966C33.8267 92.3673 33.9381 92.6381 33.8935 92.9088C33.8267 93.7437 34.0941 94.398 35.0303 94.7139C35.2531 94.7365 35.5875 94.7365 35.9664 94.7365ZM41.182 94.7365C41.7838 94.6913 42.4747 94.8718 42.9651 94.3755C43.1434 94.1498 43.2994 93.9242 43.5223 93.6083C43.5223 91.352 43.5223 88.9829 43.5223 86.6137C45.1494 86.6137 46.7542 86.546 48.3367 86.6363C49.2951 86.6814 50.0752 86.3881 50.833 85.9143C51.1896 85.6886 51.5017 85.3502 51.8137 85.0343C52.6384 84.222 53.0396 83.2292 53.0619 82.056C53.0619 80.2058 53.0619 78.3782 53.0619 76.528C53.0619 76.2572 52.995 75.9639 52.9282 75.6931C52.683 74.7229 52.1703 74.0009 51.4794 73.3691C50.677 72.6245 49.7409 72.1733 48.6264 72.1733C46.1301 72.1733 43.656 72.1733 41.1374 72.1733C40.8922 72.444 40.647 72.7148 40.3573 72.9856C40.3573 79.935 40.3573 86.9296 40.3573 93.9468C40.647 94.1949 40.9145 94.4657 41.182 94.7365ZM57.2299 94.7365C58.7678 94.7365 60.328 94.7365 61.866 94.7365C62.1334 94.4657 62.4009 94.1949 62.6684 93.9468C62.6684 93.5181 62.6684 93.1119 62.6684 92.6832C62.6684 92.6381 62.6684 92.6155 62.6684 92.593C62.334 91.9612 61.8214 91.5776 61.1527 91.5099C61.1527 86.1173 61.1527 80.7473 61.1527 75.4901C61.6431 75.2419 62.0666 75.0162 62.5569 74.7455C62.6238 74.1588 62.6684 73.5496 62.713 73.1209C62.3563 72.7148 62.1112 72.4215 61.9106 72.1958C60.3058 72.1958 58.7455 72.1958 57.3636 72.1958C56.9847 72.5343 56.7173 72.7825 56.3829 73.0984C56.4498 73.6399 56.539 74.2491 56.6058 74.7681C57.1407 75.0388 57.5642 75.2644 57.9431 75.4675C57.9431 80.8375 57.9431 86.2076 57.9431 91.5325C57.7203 91.5776 57.4751 91.5325 57.3859 91.6453C57.0739 91.9612 56.539 92.0514 56.4275 92.5704C56.4275 93.0217 56.4275 93.4729 56.4275 93.9242C56.695 94.1949 56.9624 94.4657 57.2299 94.7365Z" fill="white"/>
<path d="M32.0213 86.5683C30.7063 86.6134 29.3243 86.636 27.9424 86.6811C27.8979 86.6811 27.831 86.7714 27.6973 86.8842C27.7196 85.4853 28.4997 84.3571 28.5888 83.071C29.2575 81.9428 29.3243 80.6116 29.7701 79.3481C29.9039 79.4835 30.1045 79.6188 30.1045 79.7317C30.1267 80.7019 30.684 81.5367 30.8623 82.4618C30.996 83.0936 31.3526 83.7028 31.4418 84.3345C31.5309 85.1468 32.0659 85.756 32.0213 86.5683Z" fill="white"/>
<path d="M49.9641 82.1917C49.8081 82.4399 49.6743 82.6881 49.496 82.9138C49.184 83.2748 48.7828 83.4778 48.2701 83.4553C46.7099 83.4327 45.1497 83.4553 43.5449 83.4553C43.5449 80.7703 43.5449 78.0852 43.5449 75.3325C45.172 75.3325 46.8437 75.31 48.493 75.3325C49.2731 75.3551 49.9418 76.1674 49.9641 77.0248C49.9641 78.4463 49.9641 79.8677 49.9641 81.2892C49.9641 81.6051 49.9641 81.8984 49.9641 82.1917Z" fill="white"/>
<path d="M20.768 146H19.472L16.912 142.4C16.624 142.432 16.336 142.448 16.016 142.448H13.008V146H11.824V134.8H16.016C18.864 134.8 20.592 136.24 20.592 138.64C20.592 140.4 19.664 141.632 18.032 142.16L20.768 146ZM15.984 141.44C18.224 141.44 19.408 140.4 19.408 138.64C19.408 136.848 18.224 135.824 15.984 135.824H13.008V141.44H15.984ZM30.4905 141.792C30.4905 141.888 30.4745 142.016 30.4745 142.144H23.4345C23.5625 143.904 24.9065 145.072 26.7465 145.072C27.7705 145.072 28.6825 144.704 29.3225 143.968L29.9625 144.704C29.2105 145.6 28.0425 146.08 26.7145 146.08C24.0905 146.08 22.2985 144.288 22.2985 141.792C22.2985 139.296 24.0425 137.52 26.4105 137.52C28.7785 137.52 30.4905 139.264 30.4905 141.792ZM26.4105 138.496C24.7785 138.496 23.5785 139.648 23.4345 141.296H29.4025C29.2585 139.648 28.0585 138.496 26.4105 138.496ZM35.0588 146.08C33.6668 146.08 32.3228 145.632 31.6348 145.04L32.1468 144.144C32.8188 144.672 33.9548 145.088 35.1388 145.088C36.7388 145.088 37.3948 144.544 37.3948 143.712C37.3948 141.52 31.9388 143.248 31.9388 139.92C31.9388 138.544 33.1228 137.52 35.2668 137.52C36.3548 137.52 37.5388 137.824 38.2428 138.304L37.7468 139.216C37.0108 138.704 36.1308 138.496 35.2668 138.496C33.7468 138.496 33.0748 139.088 33.0748 139.888C33.0748 142.16 38.5308 140.448 38.5308 143.68C38.5308 145.136 37.2508 146.08 35.0588 146.08ZM44.6629 144.672L45.0629 145.488C44.6149 145.888 43.9429 146.08 43.2869 146.08C41.7029 146.08 40.8229 145.184 40.8229 143.632V138.544H39.3189V137.584H40.8229V135.744H41.9589V137.584H44.5189V138.544H41.9589V143.568C41.9589 144.56 42.4709 145.104 43.4149 145.104C43.8789 145.104 44.3429 144.96 44.6629 144.672ZM59.9264 146L58.5824 143.008H52.3424L50.9984 146H49.7664L54.8864 134.8H56.0544L61.1744 146H59.9264ZM52.7744 142.048H58.1504L55.4624 136.032L52.7744 142.048ZM67.1231 137.52C69.5231 137.52 71.3151 139.248 71.3151 141.792C71.3151 144.352 69.5231 146.08 67.1231 146.08C65.7791 146.08 64.6271 145.504 63.9231 144.416V149.104H62.7871V137.584H63.8751V139.248C64.5631 138.128 65.7311 137.52 67.1231 137.52ZM67.0431 145.072C68.8191 145.072 70.1791 143.76 70.1791 141.792C70.1791 139.84 68.8191 138.512 67.0431 138.512C65.2511 138.512 63.9071 139.84 63.9071 141.792C63.9071 143.76 65.2511 145.072 67.0431 145.072ZM74.2069 135.744C73.7429 135.744 73.3749 135.376 73.3749 134.928C73.3749 134.496 73.7429 134.128 74.2069 134.128C74.6709 134.128 75.0389 134.48 75.0389 134.912C75.0389 135.376 74.6869 135.744 74.2069 135.744ZM73.6309 146V137.584H74.7669V146H73.6309Z" fill="white"/>
</svg>
