<svg width="86" height="150" viewBox="0 0 86 150" fill="none" xmlns="http://www.w3.org/2000/svg">
<path fill-rule="evenodd" clip-rule="evenodd" d="M81.3013 65.7049L74.2114 75.6354L67.1215 65.7049H70.9871C70.6924 58.3264 64.6079 52.4236 57.1713 52.4236C50.8961 52.4236 45.5743 56.6424 43.8929 62.3889C41.8474 61.7292 39.7325 61.3125 37.583 61.1215C37.8257 60.2014 38.1377 59.2812 38.5191 58.3958C39.5418 55.9826 40.998 53.8125 42.8528 51.9549C44.7076 50.0972 46.8744 48.6215 49.284 47.6146C51.7802 46.5382 54.4324 46 57.1713 46C59.9102 46 62.5624 46.5382 65.0586 47.5972C67.4682 48.6215 69.635 50.0799 71.4898 51.9375C73.3447 53.7951 74.8008 55.9653 75.8235 58.3785C76.8116 60.7049 77.349 63.1701 77.401 65.7049H81.3013Z" fill="white"/>
<path fill-rule="evenodd" clip-rule="evenodd" d="M71.3859 121V116.729H46.9438C47.1172 116.642 47.2905 116.573 47.4639 116.486C50.1161 115.219 52.5603 113.569 54.7445 111.555C55.0392 111.278 55.3165 111.017 55.5766 110.757C55.8713 110.462 56.1833 110.149 56.478 109.819C56.8247 109.437 57.1714 109.038 57.4834 108.639H71.3859V104.368L83.0002 112.684L71.3859 121Z" fill="white"/>
<path fill-rule="evenodd" clip-rule="evenodd" d="M62.3716 90.1493C62.3716 93.8473 61.6435 97.441 60.2221 100.826C59.0087 103.708 57.3099 106.347 55.195 108.656C54.9177 108.951 54.6403 109.247 54.3629 109.542C54.1029 109.802 53.8429 110.045 53.5829 110.306C51.5374 112.198 49.2492 113.743 46.753 114.941C46.4063 115.115 46.0422 115.271 45.6782 115.427C45.6609 115.427 45.6609 115.444 45.6435 115.444C43.5634 116.33 41.3272 116.764 39.0563 116.764H3V108.691H36.4735C46.597 108.691 54.9003 100.583 55.039 90.4445C55.039 90.3577 55.039 90.2709 55.039 90.1841C55.039 79.1077 46.0596 70.1146 35 70.1146C23.9404 70.0799 14.961 79.0556 14.961 90.1493H19.6067L11.3034 101.781L3 90.1493H7.64572C7.64572 86.4514 8.37378 82.8577 9.79523 79.4723C11.182 76.2084 13.1408 73.2743 15.6544 70.757C18.1679 68.2396 21.0975 66.2605 24.3564 64.8889C27.7367 63.4653 31.325 62.7361 35.0173 62.7361C35.7627 62.7361 36.4908 62.7709 37.2188 62.823C39.3684 62.9966 41.4659 63.4132 43.5114 64.0903C44.2394 64.3334 44.9502 64.5938 45.6609 64.9063C48.9198 66.2952 51.8494 68.257 54.3629 70.7743C56.8765 73.2917 58.8526 76.2257 60.2221 79.4896C61.6435 82.8577 62.3716 86.4514 62.3716 90.1493Z" fill="white"/>
<path d="M20.912 146.096C19.232 146.096 17.584 145.504 16.752 144.64L17.216 143.728C18.016 144.512 19.44 145.088 20.912 145.088C23.008 145.088 23.92 144.208 23.92 143.104C23.92 140.032 17.024 141.92 17.024 137.776C17.024 136.128 18.304 134.704 21.152 134.704C22.416 134.704 23.728 135.072 24.624 135.696L24.224 136.64C23.264 136.016 22.144 135.712 21.152 135.712C19.104 135.712 18.192 136.624 18.192 137.744C18.192 140.816 25.088 138.96 25.088 143.04C25.088 144.688 23.776 146.096 20.912 146.096ZM30.9158 146.08C28.4038 146.08 26.5798 144.304 26.5798 141.792C26.5798 139.28 28.4038 137.52 30.9158 137.52C32.3398 137.52 33.5398 138.08 34.2118 139.184L33.3638 139.76C32.7878 138.912 31.8918 138.512 30.9158 138.512C29.0758 138.512 27.7318 139.824 27.7318 141.792C27.7318 143.776 29.0758 145.072 30.9158 145.072C31.8918 145.072 32.7878 144.688 33.3638 143.84L34.2118 144.416C33.5398 145.504 32.3398 146.08 30.9158 146.08ZM37.5314 139.232C38.0594 138.112 39.1314 137.52 40.6834 137.52V138.624C40.5874 138.624 40.4914 138.608 40.4114 138.608C38.6514 138.608 37.5794 139.728 37.5794 141.712V146H36.4434V137.584H37.5314V139.232ZM49.3133 137.584H50.4493V146H49.3612V144.464C48.7693 145.488 47.6813 146.08 46.3373 146.08C44.1933 146.08 42.7853 144.88 42.7853 142.464V137.584H43.9213V142.352C43.9213 144.144 44.8493 145.056 46.4493 145.056C48.2093 145.056 49.3133 143.92 49.3133 142V137.584ZM64.1269 137.52C66.1749 137.52 67.5189 138.704 67.5189 141.12V146H66.3829V141.232C66.3829 139.456 65.4869 138.544 63.9669 138.544C62.2389 138.544 61.1509 139.664 61.1509 141.584V146H60.0149V141.232C60.0149 139.456 59.1189 138.544 57.5829 138.544C55.8709 138.544 54.7669 139.664 54.7669 141.584V146H53.6309V137.584H54.7189V139.12C55.3109 138.112 56.3989 137.52 57.8069 137.52C59.1989 137.52 60.2869 138.112 60.7989 139.296C61.4069 138.208 62.6069 137.52 64.1269 137.52Z" fill="white"/>
</svg>
