<svg width="89" height="28" viewBox="0 0 89 28" fill="none" xmlns="http://www.w3.org/2000/svg">
<path d="M2.622 22V5.9H9.177C10.8943 5.9 12.397 6.245 13.685 6.935C14.9883 7.60967 16.0003 8.55267 16.721 9.764C17.4417 10.9753 17.802 12.3707 17.802 13.95C17.802 15.5293 17.4417 16.9247 16.721 18.136C16.0003 19.3473 14.9883 20.298 13.685 20.988C12.397 21.6627 10.8943 22 9.177 22H2.622ZM4.324 20.528H9.085C10.511 20.528 11.7453 20.252 12.788 19.7C13.846 19.1327 14.6663 18.3583 15.249 17.377C15.8317 16.3803 16.123 15.238 16.123 13.95C16.123 12.6467 15.8317 11.5043 15.249 10.523C14.6663 9.54167 13.846 8.775 12.788 8.223C11.7453 7.65567 10.511 7.372 9.085 7.372H4.324V20.528ZM23.142 13.099H31.652V14.548H23.142V13.099ZM23.326 20.528H33.009V22H21.624V5.9H32.664V7.372H23.326V20.528ZM39.8322 24.3L47.4222 2.634H48.9172L41.3272 24.3H39.8322Z" fill="#5988FF"/>
<path d="M59.336 12.386H67.087V15.284H59.336V12.386ZM59.612 19.01H68.375V22H55.909V5.9H68.076V8.89H59.612V19.01ZM71.3397 22V5.9H74.4217L83.9207 17.492H82.4257V5.9H86.1057V22H83.0467L73.5247 10.408H75.0197V22H71.3397Z" fill="#5988FF"/>
</svg>
