<svg width="89" height="28" viewBox="0 0 89 28" fill="none" xmlns="http://www.w3.org/2000/svg">
<path d="M1.909 22V5.9H9.223C10.971 5.9 12.512 6.23733 13.846 6.912C15.18 7.57133 16.2227 8.499 16.974 9.695C17.7253 10.891 18.101 12.3093 18.101 13.95C18.101 15.5753 17.7253 16.9937 16.974 18.205C16.2227 19.401 15.18 20.3363 13.846 21.011C12.512 21.6703 10.971 22 9.223 22H1.909ZM5.635 18.941H9.039C10.1123 18.941 11.04 18.7417 11.822 18.343C12.6193 17.929 13.2327 17.3463 13.662 16.595C14.1067 15.8437 14.329 14.962 14.329 13.95C14.329 12.9227 14.1067 12.041 13.662 11.305C13.2327 10.5537 12.6193 9.97867 11.822 9.58C11.04 9.166 10.1123 8.959 9.039 8.959H5.635V18.941ZM24.338 12.386H32.089V15.284H24.338V12.386ZM24.614 19.01H33.377V22H20.911V5.9H33.078V8.89H24.614V19.01ZM39.8771 24.3L47.4671 2.634H48.9621L41.3721 24.3H39.8771Z" fill="#5988FF"/>
<path d="M58.14 13.099H66.65V14.548H58.14V13.099ZM58.324 20.528H68.007V22H56.622V5.9H67.662V7.372H58.324V20.528ZM72.0077 22V5.9H73.4107L84.5197 19.884H83.7837V5.9H85.4627V22H84.0597L72.9737 8.016H73.7097V22H72.0077Z" fill="#5988FF"/>
</svg>
