<svg width="86" height="150" viewBox="0 0 86 150" fill="none" xmlns="http://www.w3.org/2000/svg">
<path d="M77.9363 51.9686C77.4265 49.1037 75.3555 46.7844 72.711 46.1705C72.5835 46.1364 72.4561 46.1364 72.2968 46.1023C72.2649 46.1023 72.233 46.0341 72.2012 46H13.767C13.7351 46.0341 13.7032 46.1023 13.6395 46.1023C10.995 46.5798 8.76468 48.8308 8.15931 51.6958C8.12745 51.7981 8.06372 51.9345 8 52.0709V114.793C8.03186 114.861 8.09558 114.895 8.09558 114.963C8.73282 118.101 10.5171 120.045 13.4165 120.829C13.5121 120.864 13.5758 120.932 13.6395 121H72.2968C72.3605 120.966 72.3924 120.898 72.4561 120.864C75.3555 120.147 77.1397 118.271 77.8726 115.168C77.9044 115.065 77.8726 114.929 77.9044 114.827C77.9044 114.793 77.9681 114.759 78 114.724V52.1733C78 52.105 77.9363 52.0709 77.9363 51.9686ZM48.6236 87.5757H48.2731C45.6286 87.5757 42.9522 87.5757 40.3077 87.5757C40.1802 87.5757 40.0528 87.5757 39.9254 87.5757C39.9254 87.6098 39.8935 87.6098 39.8935 87.6439C39.8935 87.7804 39.8935 87.9168 39.8935 88.0532V114.349H32.9158V87.6098H24.1538V81.6412H48.5917V87.5757H48.6236ZM72.1375 105.413C72.0737 106.573 71.9144 107.699 71.4684 108.79C71.3409 109.131 71.2453 109.438 71.086 109.779C70.5125 111.075 69.5567 111.996 68.4415 112.746C67.167 113.599 65.7651 114.076 64.2995 114.383C62.6746 114.724 61.0496 114.827 59.3928 114.759C58.5963 114.724 57.7997 114.724 57.0032 114.622C55.1234 114.383 53.2754 113.94 51.5548 113.053C51.4593 113.019 51.3318 112.849 51.3318 112.746C51.3318 110.529 51.3318 108.312 51.3318 106.095C51.3318 106.061 51.3318 106.027 51.3318 105.959C51.8416 106.334 52.3514 106.709 52.8612 107.016C54.1038 107.801 55.4738 108.347 56.8757 108.688C58.0865 108.995 59.2972 109.029 60.508 108.96C61.432 108.926 62.3559 108.688 63.1843 108.244C63.9172 107.835 64.5225 107.289 64.6818 106.368C64.8411 105.55 64.7774 104.731 64.3314 104.015C63.6941 102.992 62.802 102.344 61.8143 101.798C60.6991 101.218 59.584 100.707 58.437 100.161C56.7483 99.3424 55.0915 98.4557 53.7214 97.0914C52.6063 95.9659 51.7779 94.6357 51.3955 93.0327C51.1725 92.0778 51.1088 91.1228 51.1406 90.1678C51.1725 87.8145 51.969 85.8022 53.5303 84.131C54.8047 82.7667 56.366 81.9482 58.0865 81.4707C59.2654 81.1637 60.4442 80.925 61.655 80.8909C62.5152 80.8909 63.3755 80.7885 64.2039 80.8226C65.5102 80.8568 66.7847 80.925 68.0592 81.266C68.8876 81.5048 69.7478 81.7435 70.5762 81.9482C70.7355 81.9823 70.7993 82.0846 70.7993 82.2892C70.7993 84.4038 70.7993 86.5525 70.7993 88.6671C70.7993 88.7353 70.7993 88.8035 70.7674 88.9059C70.5125 88.7353 70.2895 88.5989 70.0665 88.4625C69.0469 87.8486 67.9636 87.4393 66.8484 87.1323C65.6058 86.8254 64.3632 86.6207 63.0888 86.6548C62.2285 86.6889 61.3364 86.8254 60.5398 87.1323C59.5521 87.5075 58.7556 88.1214 58.4051 89.2469C58.1183 90.1337 58.3414 90.884 58.8512 91.6003C59.4884 92.487 60.3487 93.101 61.2726 93.5784C62.5152 94.2265 63.7897 94.7722 65.0005 95.3861C66.4024 96.1023 67.8043 96.8186 68.9832 97.8759C70.0027 98.7967 70.9267 99.8199 71.4365 101.184C71.7233 102.003 71.9782 102.855 71.9782 103.776C72.1056 104.322 72.1693 104.868 72.1375 105.413Z" fill="white"/>
<path d="M4.5 146V135.824H0.564V134.8H9.62V135.824H5.684V146H4.5ZM16.6766 137.584H17.7966L13.5886 147.008C12.8846 148.656 11.9886 149.184 10.7886 149.184C10.0046 149.184 9.25263 148.928 8.74062 148.416L9.26863 147.568C9.68463 147.984 10.1966 148.208 10.8046 148.208C11.5566 148.208 12.0686 147.856 12.5486 146.8L12.9166 145.984L9.15663 137.584H10.3406L13.5086 144.736L16.6766 137.584ZM23.7325 137.52C26.1325 137.52 27.9245 139.248 27.9245 141.792C27.9245 144.352 26.1325 146.08 23.7325 146.08C22.3885 146.08 21.2365 145.504 20.5325 144.416V149.104H19.3965V137.584H20.4845V139.248C21.1725 138.128 22.3405 137.52 23.7325 137.52ZM23.6525 145.072C25.4285 145.072 26.7885 143.76 26.7885 141.792C26.7885 139.84 25.4285 138.512 23.6525 138.512C21.8605 138.512 20.5165 139.84 20.5165 141.792C20.5165 143.76 21.8605 145.072 23.6525 145.072ZM37.5843 141.792C37.5843 141.888 37.5683 142.016 37.5683 142.144H30.5283C30.6562 143.904 32.0003 145.072 33.8403 145.072C34.8643 145.072 35.7763 144.704 36.4163 143.968L37.0563 144.704C36.3043 145.6 35.1363 146.08 33.8083 146.08C31.1843 146.08 29.3923 144.288 29.3923 141.792C29.3923 139.296 31.1363 137.52 33.5043 137.52C35.8723 137.52 37.5843 139.264 37.5843 141.792ZM33.5043 138.496C31.8723 138.496 30.6723 139.648 30.5283 141.296H36.4963C36.3523 139.648 35.1523 138.496 33.5043 138.496ZM43.2245 146.096C41.5445 146.096 39.8965 145.504 39.0645 144.64L39.5285 143.728C40.3285 144.512 41.7525 145.088 43.2245 145.088C45.3205 145.088 46.2325 144.208 46.2325 143.104C46.2325 140.032 39.3365 141.92 39.3365 137.776C39.3365 136.128 40.6165 134.704 43.4645 134.704C44.7285 134.704 46.0405 135.072 46.9365 135.696L46.5365 136.64C45.5765 136.016 44.4565 135.712 43.4645 135.712C41.4165 135.712 40.5045 136.624 40.5045 137.744C40.5045 140.816 47.4005 138.96 47.4005 143.04C47.4005 144.688 46.0885 146.096 43.2245 146.096ZM53.2283 146.08C50.7163 146.08 48.8923 144.304 48.8923 141.792C48.8923 139.28 50.7163 137.52 53.2283 137.52C54.6523 137.52 55.8523 138.08 56.5243 139.184L55.6763 139.76C55.1003 138.912 54.2043 138.512 53.2283 138.512C51.3883 138.512 50.0443 139.824 50.0443 141.792C50.0443 143.776 51.3883 145.072 53.2283 145.072C54.2043 145.072 55.1003 144.688 55.6763 143.84L56.5243 144.416C55.8523 145.504 54.6523 146.08 53.2283 146.08ZM59.8439 139.232C60.3719 138.112 61.4439 137.52 62.9959 137.52V138.624C62.8999 138.624 62.8039 138.608 62.7239 138.608C60.9639 138.608 59.8919 139.728 59.8919 141.712V146H58.7559V137.584H59.8439V139.232ZM65.6288 135.744C65.1648 135.744 64.7968 135.376 64.7968 134.928C64.7968 134.496 65.1648 134.128 65.6288 134.128C66.0928 134.128 66.4608 134.48 66.4608 134.912C66.4608 135.376 66.1088 135.744 65.6288 135.744ZM65.0528 146V137.584H66.1888V146H65.0528ZM73.6856 137.52C76.0856 137.52 77.8776 139.248 77.8776 141.792C77.8776 144.352 76.0856 146.08 73.6856 146.08C72.3416 146.08 71.1896 145.504 70.4856 144.416V149.104H69.3496V137.584H70.4376V139.248C71.1256 138.128 72.2936 137.52 73.6856 137.52ZM73.6056 145.072C75.3816 145.072 76.7416 143.76 76.7416 141.792C76.7416 139.84 75.3816 138.512 73.6056 138.512C71.8136 138.512 70.4696 139.84 70.4696 141.792C70.4696 143.76 71.8136 145.072 73.6056 145.072ZM84.2254 144.672L84.6254 145.488C84.1774 145.888 83.5054 146.08 82.8494 146.08C81.2654 146.08 80.3854 145.184 80.3854 143.632V138.544H78.8814V137.584H80.3854V135.744H81.5214V137.584H84.0814V138.544H81.5214V143.568C81.5214 144.56 82.0334 145.104 82.9774 145.104C83.4414 145.104 83.9054 144.96 84.2254 144.672Z" fill="white"/>
</svg>
