<svg
  
  
  
   fill="none"
   version="1.1"
   id="svg11"
   sodipodi:docname="work_remote.svg"
   inkscape:version="1.4.2 (ebf0e940d0, 2025-05-08)"
   xmlns:inkscape="http://www.inkscape.org/namespaces/inkscape"
   xmlns:sodipodi="http://sodipodi.sourceforge.net/DTD/sodipodi-0.dtd"
   xmlns="http://www.w3.org/2000/svg"
   xmlns:svg="http://www.w3.org/2000/svg" width="54.11" height="45.92" viewBox="0.47 2.07 54.11 45.92">
  
  <path
     d="M21.8611 21.8879H48.3347C49.0251 21.8879 49.5847 22.4476 49.5847 23.1379V40.176H20.6111V23.1379C20.6111 22.4476 21.1707 21.8879 21.8611 21.8879Z"
     fill="#1E0A7D"
     stroke="url(#paint0_radial_105205_2146)"
     stroke-width="1.5"
     id="path2" />
  <path
     d="M16.4893 42.4932H53.5801V43.989C53.5801 45.6459 52.2369 46.989 50.5801 46.989H19.4893C17.8324 46.989 16.4893 45.6459 16.4893 43.989V42.4932Z"
     fill="url(#paint1_radial_105205_2146)"
     id="path3" />
  <rect
     x="32.2249"
     y="43.6172"
     width="6.74379"
     height="1.12396"
     rx="0.561982"
     fill="#140754"
     id="rect3" />
  <path
     d="M22.4891 13.5135C15.9891 12.5135 13.4892 16.0135 12.7149 22.0281"
     stroke="#75BCE4"
     stroke-width="2"
     stroke-linecap="round"
     id="path4" />
  <path
     d="M22.989 8.01349C12.9258 7.04765 7.23109 13.0165 6.82758 21.8933"
     stroke="#75BCE4"
     stroke-width="2"
     stroke-linecap="round"
     id="path5" />
  <path
     d="M22.9686 3.19653C10.1721 1.93278 1.46867 10.1965 1.46854 22.6965"
     stroke="#75BCE4"
     stroke-width="2"
     stroke-linecap="round"
     id="path6" />
  <defs
     id="defs11">
    <rect
       x="50.06784"
       y="11.649448"
       width="133.84473"
       height="47.093514"
       id="rect13" />
    <rect
       x="56.264355"
       y="10.162284"
       width="84.520463"
       height="33.709041"
       id="rect12" />
    <rect
       x="90.469118"
       y="1.239303"
       width="48.828537"
       height="47.093513"
       id="rect11" />
    <radialGradient
       id="paint0_radial_105205_2146"
       cx="0"
       cy="0"
       r="1"
       gradientUnits="userSpaceOnUse"
       gradientTransform="translate(25.8909 25.5747) rotate(24.8201) scale(24.9178 20.0909)">
      <stop
         offset="0.0625"
         stop-color="#5988FF"
         id="stop6" />
      <stop
         offset="0.515625"
         stop-color="#5988FF"
         id="stop7" />
      <stop
         offset="1"
         stop-color="#0043F0"
         id="stop8" />
    </radialGradient>
    <radialGradient
       id="paint1_radial_105205_2146"
       cx="0"
       cy="0"
       r="1"
       gradientUnits="userSpaceOnUse"
       gradientTransform="translate(23.8284 43.5012) rotate(4.9342) scale(27.6294 5.01057)">
      <stop
         offset="0.0625"
         stop-color="#5988FF"
         id="stop9" />
      <stop
         offset="0.515625"
         stop-color="#5988FF"
         id="stop10" />
      <stop
         offset="1"
         stop-color="#0043F0"
         id="stop11" />
    </radialGradient>
  </defs>
  
</svg>
